<svg width="1920" height="1080" viewBox="0 0 1920 1080" fill="none" xmlns="http://www.w3.org/2000/svg">
<g clip-path="url(#clip0_1919_68)">
<rect width="1920" height="1080" fill="white"/>
<path d="M920.026 466.568C947.952 495.292 973.475 525.986 1014.39 536.148C1067.69 549.385 1120.43 559.296 1175.61 556.158C1226.43 553.268 1280.53 534.984 1325.23 510.681C1344.99 499.937 1366.43 490.584 1384.81 477.596C1409.55 460.104 1432.31 440.537 1453.7 419.044C1503.64 368.868 1541.72 311.935 1576.49 250.778C1585.2 235.458 1592.8 220.083 1605.6 207.688C1614.55 199.019 1623 195.86 1633.79 190.293C1651.01 181.418 1673.89 185.095 1687.8 198.137C1703.1 212.485 1716.13 231.146 1727.48 248.731C1737.54 264.327 1737.16 281.874 1736.35 299.893C1734.78 334.758 1723.56 367.567 1713.38 400.625C1699.93 444.302 1687.28 488.881 1677.45 533.533C1674.13 548.654 1669.51 564.687 1669.04 580.261C1669.01 581.153 1669.4 578.514 1669.61 577.646C1673.42 561.646 1680.81 546.28 1686.77 531.032C1710.4 470.61 1737.22 406.063 1744.87 341.05C1747.99 314.527 1750.9 289.79 1750.9 262.943C1750.9 227.741 1753.9 192.212 1766.02 159.027C1766.63 157.353 1775.13 129.58 1775 129.58C1771.89 129.58 1757.84 164.563 1756.92 166.644C1736.83 212.301 1723.19 261.765 1719.75 311.49C1718.36 331.492 1718.15 351.259 1718.15 371.293C1718.15 391.265 1718.15 411.237 1718.15 431.209C1718.15 435.275 1715.3 444.914 1719.06 443.374C1726.66 440.266 1733.42 406.269 1734.98 401.08C1759.84 318.437 1779.36 234.018 1795.92 149.363C1799.29 132.117 1799.39 108.979 1808.2 93.4258C1809.76 90.672 1810.95 88.4142 1812.18 85.3535C1812.9 83.5504 1812.6 89.2154 1812.75 91.1519C1814.31 111.879 1814.51 132.69 1815.25 153.456C1818.62 248.601 1818.43 343.638 1818.43 438.826C1818.43 531.07 1818.43 623.313 1818.43 715.556C1818.43 739.094 1820.1 763.3 1816.27 786.615C1812.69 808.432 1807.72 829.156 1802.17 850.51C1798.14 866.038 1795.96 882.672 1788.87 897.238C1782.74 909.834 1774.69 921.386 1768.52 933.961C1756.91 957.621 1743.37 964.923 1717.13 970.912C1671.64 981.296 1622.58 976.998 1576.26 979.098C1532.57 981.078 1489.17 982.797 1445.4 982.167C1378.37 981.203 1311.5 978.188 1244.39 978.188C1173.57 978.188 1103.88 977.255 1034.4 961.816C998.187 953.769 961.426 946.293 924.574 941.806C887.885 937.34 851.247 938.21 814.405 936.917C795.781 936.264 777.342 934.272 758.809 932.483C758.665 932.47 730.35 933.143 737.889 926.799C786.08 886.248 852.795 861.932 910.476 839.71C1043.86 788.322 1180.97 740.429 1320.68 709.417C1373.62 697.666 1427.77 689.474 1482.13 694.637C1495.86 695.941 1516.6 695.018 1517.26 712.828C1518.53 747.286 1485.89 775.186 1459.39 791.504C1386.65 836.293 1295.26 853.398 1213.36 873.363C1125.9 894.68 1036.11 907.056 946.403 913.838C779.032 926.49 611.367 934.018 444.333 951.129C384.457 957.263 325.23 957.723 265.152 957.723C244.996 957.723 224.82 957.985 204.667 957.723C194.098 957.586 183.082 955.997 172.606 954.654C158.287 952.818 164.891 925.661 166.352 915.657C170.958 884.129 183.293 856.75 183.293 824.361C183.293 799.963 184.248 775.375 179.882 751.256C174.557 721.84 168.307 692.35 161.918 663.144C149.873 608.077 152.595 550.641 152.595 494.65C152.595 453.682 152.595 412.715 152.595 371.747C152.595 331.819 154.642 291.897 154.642 251.914C154.642 240.621 154.642 229.327 154.642 218.034C154.642 210.85 151.003 195.932 161.691 203.367C189.768 222.899 224.911 225.841 258.33 227.811C314.818 231.142 368.856 220.871 424.323 212.008C520.613 196.621 619.72 181.424 717.425 180.06C779.353 179.196 841.6 172.525 903.427 168.691C977.893 164.073 1052.85 169.989 1127.4 167.327C1176.82 165.562 1224.87 163.122 1273.61 154.138C1317.87 145.981 1359.78 129.061 1403.79 120.144C1437.06 113.403 1471.19 110.696 1505.09 110.48C1550.65 110.19 1589.33 109.708 1632.66 96.6092C1668.75 85.6962 1707.66 84.7876 1744.76 79.7826C1766.12 76.9004 1787.61 71.5966 1809.22 71.5966C1816.63 71.5966 1834.06 67.8844 1825.82 80.2373C1813.4 98.8648 1788.64 112.09 1770 123.213C1710.89 158.48 1648.62 189.071 1585.47 216.328C1493.76 255.92 1400.37 290.872 1309.99 333.546C1220.4 375.852 1127.84 407.019 1032.81 434.847C860.535 485.297 686.502 529.19 512.663 573.781C475.514 583.31 438.765 590.397 401.129 597.088C393.175 598.502 409.306 583.405 410.111 582.649C429.317 564.619 447.367 544.188 469.8 530.009C492.003 515.975 517.476 507.824 542.45 500.448C622.263 476.877 704.378 461.653 785.413 443.033C844.448 429.468 903.154 414.025 962.775 403.127C1041.8 388.681 1122.19 381.891 1202.21 375.84C1283.57 369.688 1365.14 365.504 1446.65 362.083C1476.5 360.831 1506.1 356.432 1536.02 359.014C1554.51 360.61 1572.65 364.244 1591.27 364.244" stroke="url(#paint0_linear_1919_68)" stroke-width="500" stroke-linecap="round"/>
<g filter="url(#filter0_f_1919_68)">
<ellipse cx="-91.5988" cy="189.801" rx="215.018" ry="415.5" transform="rotate(-38.6416 -91.5988 189.801)" fill="#85BC49" fill-opacity="0.63"/>
</g>
<g filter="url(#filter1_f_1919_68)">
<ellipse cx="1764.4" cy="100.801" rx="215.018" ry="415.5" transform="rotate(-38.6416 1764.4 100.801)" fill="#85BC49" fill-opacity="0.63"/>
</g>
<path d="M-21.1385 320.541L-52.2339 -60.1616L293.012 103.26L-21.1385 320.541Z" stroke="white"/>
<path d="M-7.13847 418.541L-38.2339 37.8384L307.012 201.26L-7.13847 418.541Z" stroke="white"/>
<path d="M-7.13847 362.541L-38.2339 -18.1616L307.012 145.26L-7.13847 362.541Z" stroke="white"/>
<rect x="1048.53" y="-1152.3" width="1796.58" height="628" transform="rotate(36.8731 1048.53 -1152.3)" stroke="white"/>
<circle cx="1987.5" cy="435.5" r="524" stroke="white"/>
<path d="M36.6672 1554.91L-431.393 568.247L657.115 656.228L36.6672 1554.91Z" stroke="white"/>
</g>
<defs>
<filter id="filter0_f_1919_68" x="-642.104" y="-402.903" width="1101.01" height="1185.41" filterUnits="userSpaceOnUse" color-interpolation-filters="sRGB">
<feFlood flood-opacity="0" result="BackgroundImageFix"/>
<feBlend mode="normal" in="SourceGraphic" in2="BackgroundImageFix" result="shape"/>
<feGaussianBlur stdDeviation="120.7" result="effect1_foregroundBlur_1919_68"/>
</filter>
<filter id="filter1_f_1919_68" x="1213.9" y="-491.903" width="1101.01" height="1185.41" filterUnits="userSpaceOnUse" color-interpolation-filters="sRGB">
<feFlood flood-opacity="0" result="BackgroundImageFix"/>
<feBlend mode="normal" in="SourceGraphic" in2="BackgroundImageFix" result="shape"/>
<feGaussianBlur stdDeviation="120.7" result="effect1_foregroundBlur_1919_68"/>
</filter>
<linearGradient id="paint0_linear_1919_68" x1="990.158" y1="71.0735" x2="990.158" y2="982.3" gradientUnits="userSpaceOnUse">
<stop stop-color="#4C5890"/>
<stop offset="1" stop-color="#59A987"/>
</linearGradient>
<clipPath id="clip0_1919_68">
<rect width="1920" height="1080" fill="white"/>
</clipPath>
</defs>
</svg>
